<svg width="75" height="83" viewBox="0 0 75 83" fill="none" xmlns="http://www.w3.org/2000/svg">
<path d="M59.4104 33.158C60.2226 33.0447 61.0739 33.0776 61.8693 33.2075C62.1092 33.2402 62.2756 33.4714 62.2498 33.7096C61.9089 36.4999 60.2526 39.0836 57.86 40.4778C57.5052 40.6847 57.5686 41.2269 57.9755 41.3266C58.9454 41.5514 59.9249 42.0345 60.7308 42.594C60.8286 42.6635 60.8955 42.7684 60.9174 42.8863C60.9393 43.0043 60.9144 43.1262 60.8481 43.2262C59.4255 45.3743 57.4286 47.1322 55.059 48.028C54.6478 48.1905 54.6503 48.7565 55.0666 48.8911C56.0222 49.2017 56.9315 49.6738 57.7654 50.2257C57.9934 50.3809 58.0323 50.7207 57.8399 50.9216C55.3296 53.6297 51.8929 55.4676 48.2463 56.0496C46.5719 56.3118 44.8462 56.4387 43.1247 56.3856C42.1807 56.3632 41.2391 56.2792 40.3061 56.1342C40.3992 56.0644 40.4766 55.9916 40.554 55.9186C43.0341 53.5989 44.909 50.6062 46.2217 47.436C46.5441 46.6638 46.8401 45.8761 47.0924 45.0927C47.9364 42.5105 48.1712 39.7412 47.8149 37.048C47.7077 36.2362 47.5471 35.4323 47.3341 34.6416C47.2036 34.1547 47.0472 33.6822 46.8749 33.2064C46.7758 32.9198 46.4295 32.7964 46.163 32.9424C45.2094 33.4738 44.2962 34.1285 43.5267 34.9015C43.1848 35.2392 42.6314 34.955 42.6809 34.4721C42.9894 31.7276 42.2641 28.9096 40.8848 26.4609C40.7551 26.2273 40.4618 26.1344 40.2124 26.2608C39.267 26.7676 38.3146 27.4702 37.609 28.3153C37.3126 28.6558 36.7519 28.4556 36.7268 28C36.6666 26.8009 36.3566 25.6164 35.856 24.5277C36.0767 23.626 36.4186 22.7592 36.8642 21.9462C37.3373 21.0962 37.9232 20.3055 38.6243 19.6106C38.7689 19.4825 38.9744 19.4423 39.1452 19.5232C40.372 20.0669 41.4739 20.9795 42.1656 22.1138C42.3776 22.4596 42.9156 22.3527 42.9945 21.9514C43.5598 19.1082 45.3686 16.3421 47.7518 14.8013C47.9247 14.6954 48.1678 14.7122 48.3118 14.86C49.2566 15.7701 49.7455 16.8991 50.0286 18.1504C50.1182 18.5961 50.706 18.6473 50.8898 18.2476C52.1956 15.4969 54.2159 13.0468 56.5019 11.0326C56.7016 10.8598 57.0237 10.8928 57.1882 11.1171C60.0596 15.1271 60.6653 20.5045 58.8329 25.0739C58.6803 25.4504 59.0411 25.8234 59.4264 25.6754C60.1678 25.4095 60.9712 25.2912 61.7539 25.2904C62.035 25.2821 62.2612 25.5422 62.2221 25.8135C61.8423 28.264 60.7253 30.6063 59.0239 32.3817C58.7195 32.6944 58.9712 33.216 59.4104 33.158Z" fill="#EAF4EF"/>
<path d="M49.1491 45.7568C47.7748 49.9499 45.7102 53.5974 43.1244 56.3855C42.1804 56.363 41.2388 56.279 40.3058 56.1341C40.399 56.0643 40.4763 55.9914 40.5537 55.9185C43.0339 53.5987 44.9087 50.606 46.2214 47.4358C46.5438 46.6636 46.8398 45.876 47.0921 45.0926C47.9361 42.5103 48.1709 39.741 47.8146 37.0478C47.7074 36.236 47.5468 35.4322 47.3338 34.6415C47.2033 34.1545 47.047 33.6821 46.8746 33.2063C46.7755 32.9197 46.4292 32.7962 46.1628 32.9423C45.2091 33.4736 44.296 34.1283 43.5264 34.9013C43.1845 35.2391 42.6311 34.9548 42.6806 34.4719C42.9891 31.7274 42.2639 28.9095 40.8845 26.4608C40.7549 26.2271 40.4615 26.1343 40.2121 26.2607C39.2668 26.7674 38.3143 27.4701 37.6088 28.3152C37.3123 28.6556 36.7516 28.4554 36.7265 27.9998C36.6663 26.8007 36.3563 25.6163 35.8557 24.5276C36.0765 23.6258 36.4183 22.759 36.8639 21.946C37.4732 22.8564 37.9615 23.844 38.3055 24.8776C38.6304 24.6712 38.9332 24.4933 39.2017 24.3541C39.4042 24.2477 39.5795 24.1784 39.7534 24.1318C40.9291 23.8168 42.1642 24.3358 42.7672 25.3895C43.8207 27.262 44.499 29.2647 44.7699 31.2501C44.8858 31.1818 44.9967 31.1223 45.1125 31.054C45.3041 30.9492 45.5073 30.8672 45.718 30.8097C47.0467 30.4536 48.4514 31.1882 48.9099 32.482C50.4666 36.7325 50.5529 41.4514 49.1491 45.7568Z" fill="black" fill-opacity="0.063"/>
<path d="M47.094 45.0905C45.7831 49.1055 43.6351 53.0289 40.5521 55.9191C40.3618 56.0992 40.1336 56.2829 39.8694 56.4762C36.574 58.8623 27.653 62.0395 19.1607 56.6583C18.9421 56.517 18.8573 56.2237 18.9833 55.9964C19.9922 54.152 21.9106 52.7414 23.9633 52.3139C18.7111 53.5599 12.8127 51.3348 9.70974 46.9284C9.59186 46.7536 9.58646 46.5164 9.70897 46.348C10.4726 45.2984 11.6537 44.5303 12.928 44.1824C13.3734 44.0631 13.4204 43.4442 13.0075 43.2516C10.1316 41.9067 7.85246 39.3953 6.8835 36.3331C6.82426 36.1361 6.88707 35.9128 7.05272 35.7846C8.19938 34.8645 9.62791 34.2495 11.0694 34.1407C11.5176 34.1044 11.6864 33.5302 11.3264 33.2461C8.84213 31.2929 7.05266 28.1537 6.74401 25.0758C6.72204 24.8494 6.85572 24.6265 7.07533 24.5548C8.42934 24.0952 9.7744 24.1798 11.1313 24.5259C11.6034 24.6508 11.9496 24.1131 11.6529 23.7282C9.62567 21.0978 8.24375 17.9139 7.42633 14.6949C7.35656 14.4104 7.54805 14.114 7.8391 14.0682C13.1773 13.2635 18.6971 15.3515 22.2322 19.397C22.5296 19.7367 23.0648 19.5675 23.1192 19.1207C23.2213 18.2741 23.5109 17.4288 23.8941 16.6683C24.033 16.3923 24.3881 16.2972 24.642 16.4743C26.8344 18.0606 28.5589 20.3077 29.4328 22.8472C29.5871 23.3026 30.222 23.3131 30.3837 22.8569C30.6793 22.0102 31.1266 21.2 31.6528 20.4914C31.8078 20.2757 32.1109 20.2268 32.3309 20.3742C34.8791 22.0845 36.5707 24.979 36.7289 28.0006C36.753 28.4521 37.3112 28.6574 37.6063 28.3138C38.316 27.4722 39.2684 26.7654 40.2165 26.2598C40.3329 26.2002 40.4677 26.1878 40.593 26.2251C40.7184 26.2623 40.8245 26.3465 40.8893 26.46C42.2682 28.9095 42.9912 31.728 42.6822 34.4749C42.6298 34.9533 43.1832 35.2373 43.5252 34.9005C44.298 34.1257 45.2136 33.4742 46.1673 32.9411C46.4308 32.7931 46.7745 32.9204 46.8778 33.2088C48.2606 36.9987 48.3428 41.2532 47.094 45.0905Z" fill="#EAF4EF"/>
<path d="M9.12133 47.3431C11.6486 50.9324 15.8932 53.1408 20.2505 53.3614C19.4795 54.0055 18.8257 54.7833 18.3537 55.6466C18.0452 56.2022 18.2275 56.912 18.7753 57.2662C23.0166 59.9543 27.2778 60.5687 30.9289 60.251C28.8824 62.7419 26.7168 65.1591 24.4594 67.4438C24.3251 67.5797 24.2503 67.7633 24.2514 67.9542C24.2525 68.1452 24.3293 68.328 24.4651 68.4623C24.601 68.5965 24.7846 68.6712 24.9756 68.67C25.1666 68.6688 25.3492 68.5918 25.4835 68.4559C28.1352 65.7727 30.669 62.9149 33.0236 59.962C35.5738 59.4762 37.8916 58.553 39.5824 57.5229C42.2242 62.6959 44.4796 67.9852 46.4194 73.8563C46.4769 74.0309 46.599 74.1768 46.7607 74.2642C46.9223 74.3516 47.1113 74.3739 47.2888 74.3264C47.656 74.228 47.9211 73.8031 47.7884 73.4028C45.9938 67.9666 43.6679 62.3474 40.9016 56.9224C47.4634 57.7226 53.8493 56.2866 58.3595 51.417C58.8613 50.8943 58.7658 50.0303 58.1654 49.6302C57.4276 49.1373 56.6792 48.7385 55.9351 48.4425C58.0728 47.4805 60.0117 45.7898 61.4441 43.6275C61.8006 43.102 61.6741 42.3936 61.1435 42.0057C60.3791 41.4733 59.537 41.0506 58.722 40.7862C61.0179 39.2401 62.6234 36.6127 62.9621 33.7868C63.031 33.1581 62.5832 32.5791 61.9874 32.4999C61.3178 32.3866 60.6393 32.3463 59.9917 32.3804C61.5208 30.5979 62.5574 28.3305 62.9325 25.9234C63.0439 25.2041 62.4617 24.5557 61.7486 24.5677C61.0349 24.57 60.3547 24.67 59.693 24.8389C61.391 20.119 60.6721 14.7461 57.7656 10.6869C57.3629 10.1403 56.5741 10.0322 56.0244 10.4927C53.6934 12.5432 51.8142 14.8864 50.5516 17.3097C50.1826 16.0764 49.6224 15.1221 48.818 14.3452C48.4337 13.9679 47.8214 13.9056 47.3601 14.1977C45.0019 15.7176 43.1498 18.3653 42.4223 21.2154C41.6774 20.2205 40.6402 19.3986 39.4605 18.8736C39.0326 18.6654 38.5031 18.7461 38.1196 19.0975C37.0657 20.1439 36.239 21.3941 35.6753 22.7691C34.8989 21.5996 33.9073 20.5643 32.7319 19.7755C32.1898 19.4126 31.4429 19.5464 31.0749 20.0615C30.6056 20.6933 30.2109 21.3804 29.9147 22.0743C28.9587 19.6531 27.2518 17.4729 25.054 15.8822C24.4644 15.4719 23.6015 15.6468 23.2511 16.3438C22.8781 17.0844 22.6125 17.8518 22.4732 18.5876C18.7379 14.5412 13.1321 12.5413 7.72704 13.3557C7.00999 13.4724 6.5574 14.1766 6.72864 14.8713C7.57678 18.2104 8.95483 21.2477 10.7299 23.6951C9.29165 23.4062 8.04627 23.46 6.85195 23.8695C6.32098 24.0428 5.97372 24.5781 6.02703 25.1471C6.33676 28.2295 8.02934 31.3777 10.4813 33.4828C9.11353 33.691 7.75449 34.298 6.61154 35.2147C6.2165 35.5204 6.04877 36.0521 6.19665 36.5494C7.15956 39.5913 9.33308 42.1544 12.2048 43.6566C10.9615 44.1091 9.85985 44.9159 9.12646 45.9239C8.82744 46.3356 8.82238 46.9011 9.12133 47.3431ZM36.6148 24.4611C37.0511 22.8606 37.8787 21.4062 39.0047 20.2497C40.0757 20.7603 40.9748 21.5505 41.5488 22.4917C42.1142 23.4032 43.5042 23.125 43.7012 22.0872C44.2206 19.4604 45.8458 16.9658 47.9614 15.527C48.6181 16.2223 49.054 17.1131 49.3235 18.3006C49.5568 19.4242 51.0683 19.5744 51.5414 18.5535C52.6773 16.1572 54.4834 13.8104 56.761 11.7643C59.3439 15.5371 59.8858 20.5051 58.1676 24.799C57.7758 25.7661 58.7078 26.7081 59.6765 26.3544C60.2042 26.161 60.8141 26.0453 61.4557 26.016C61.0473 28.2443 60.005 30.3169 58.5023 31.8795C57.7221 32.6866 58.3964 34.023 59.506 33.8728C59.5075 33.8729 59.5088 33.8725 59.5102 33.8724C60.1262 33.7856 60.802 33.7885 61.4962 33.882C61.1172 36.3616 59.6038 38.6317 57.5017 39.8519C56.5806 40.3805 56.7621 41.7749 57.8081 42.0252C58.556 42.1997 59.3662 42.56 60.1021 43.0404C58.7073 45.0604 56.8343 46.5867 54.7942 47.3559C53.7619 47.7635 53.779 49.225 54.8457 49.5807C55.5905 49.8194 56.3467 50.1799 57.0987 50.6545C53.1146 54.7888 47.6653 56.0855 41.8974 55.5964C44.5903 52.7604 46.555 49.0618 47.7785 45.3141C48.5948 42.7858 48.8471 39.9612 48.6042 37.5531C50.9217 36.8025 53.0115 35.5143 54.6731 33.79C54.7388 33.7219 54.7904 33.6416 54.825 33.5535C54.8597 33.4655 54.8766 33.3715 54.8749 33.2769C54.8731 33.1823 54.8528 33.089 54.8149 33.0023C54.7771 32.9156 54.7225 32.8372 54.6544 32.7716C54.3677 32.4952 53.9106 32.5041 53.6365 32.7906C52.1952 34.2858 50.397 35.4213 48.3987 36.1086C48.3444 35.8049 48.1533 34.9571 48.0856 34.6954C49.0661 32.3778 49.9783 30.0029 50.7925 27.6279C50.8518 27.4479 50.8377 27.2517 50.7533 27.0819C50.669 26.9121 50.5211 26.7825 50.3417 26.721C50.1624 26.6596 49.9661 26.6713 49.7953 26.7536C49.6245 26.836 49.4931 26.9823 49.4295 27.1609C48.8004 28.997 48.0988 30.8251 47.3658 32.6346C46.9588 32.1124 46.2793 32.0484 45.8148 32.3125C44.9219 32.8115 44.1269 33.372 43.448 33.9807C43.6098 31.3957 42.9329 28.6225 41.5155 26.1039C41.1916 25.5324 40.4669 25.3254 39.8762 25.6243C38.94 26.1237 38.0791 26.7653 37.408 27.4586C37.4067 27.4464 37.4032 27.4345 37.402 27.4224C37.3059 26.5322 37.0313 25.4204 36.6148 24.4611ZM13.1143 44.8782C14.2112 44.5842 14.3325 43.0754 13.3127 42.5996C10.6022 41.3315 8.53114 39.0209 7.61591 36.2575C8.6691 35.4464 9.90883 34.9507 11.1277 34.8585C12.2296 34.7643 12.6444 33.3687 11.7714 32.6797C9.44799 30.8536 7.81573 27.9925 7.47967 25.1813C8.50629 24.8661 9.62226 24.8839 10.9471 25.2225C12.0854 25.5206 12.9395 24.2178 12.2229 23.2882C10.4379 20.9715 9.04302 18.0211 8.18371 14.7462C13.1765 14.0779 18.3321 16.0279 21.6905 19.8718C22.3997 20.6814 23.705 20.2701 23.8336 19.2068C23.9103 18.5718 24.1156 17.887 24.4302 17.2128C26.4381 18.7282 27.9675 20.803 28.7507 23.079C29.1249 24.1788 30.6717 24.2003 31.0641 23.0937C31.3001 22.4174 31.6562 21.7326 32.1061 21.0935C34.3769 22.6985 35.866 25.3582 36.0078 28.0385C36.069 29.1793 37.4643 29.5824 38.1572 28.7775C38.7149 28.1156 39.497 27.4872 40.3633 26.9995C41.6646 29.3918 42.2327 32.0096 41.9649 34.3959C41.8375 35.5524 43.2064 36.2237 44.0348 35.4089C44.6554 34.7863 45.4122 34.2127 46.2875 33.7015C47.5456 37.3212 47.5399 41.4085 46.4077 44.8677C45.1639 48.6888 43.0329 52.5957 40.0911 55.3603C38.9754 53.2524 37.7967 51.1786 36.5565 49.1415C38.0455 46.6178 38.69 43.6439 38.359 40.7289C38.3373 40.5392 38.2412 40.3658 38.0918 40.247C37.9424 40.1281 37.7519 40.0733 37.5622 40.0948C37.1592 40.1397 36.8828 40.4968 36.9274 40.8918C37.1948 43.2452 36.7559 45.6438 35.6879 47.7484C33.2332 43.8365 31.1519 40.9218 28.6939 37.7757C29.7108 34.5394 29.6794 31.0109 28.5812 27.7978C28.4527 27.4212 28.0329 27.2159 27.6666 27.3493C27.4859 27.4111 27.3371 27.5421 27.2529 27.7135C27.1687 27.885 27.1561 28.0828 27.2177 28.2636C28.1092 30.8717 28.2317 33.7092 27.5918 36.382C25.4013 33.6638 23.096 31.0411 20.674 28.535C20.5413 28.3977 20.3594 28.3188 20.1685 28.3155C19.9776 28.3123 19.7932 28.385 19.6559 28.5177C19.5186 28.6505 19.4397 28.8324 19.4365 29.0234C19.4333 29.2144 19.5061 29.3988 19.6389 29.5362C23.198 33.2188 26.5051 37.1531 29.5499 41.2856C27.3248 42.5632 24.738 43.138 22.1751 42.8951C21.985 42.877 21.7954 42.9353 21.6482 43.057C21.501 43.1787 21.4082 43.3539 21.3901 43.5441C21.3722 43.7342 21.4306 43.9237 21.5523 44.0709C21.6741 44.218 21.8493 44.3108 22.0395 44.3287C24.9094 44.6006 27.8068 43.984 30.4034 42.4537C33.558 46.8481 36.4053 51.4551 38.9251 56.2418C37.593 57.0762 35.3356 58.1008 32.5531 58.5989C32.5388 58.6003 32.526 58.6046 32.5118 58.6068C28.8467 59.2545 24.2792 58.9839 19.72 56.1582C21.291 53.5088 24.2161 52.9775 24.15 53.009C24.3293 52.9608 24.483 52.8453 24.5791 52.6865C24.6752 52.5277 24.7063 52.338 24.6658 52.1568C24.6247 51.9721 24.5125 51.811 24.3535 51.7083C24.1945 51.6056 24.0015 51.5697 23.8162 51.6082C18.2632 52.7835 13.1357 50.4411 10.3897 46.6409C11.0409 45.8141 12.0253 45.1754 13.1143 44.8782Z" fill="#176E3E"/>
</svg>
